<svg width="320" height="86" viewBox="0 0 320 86" fill="none" xmlns="http://www.w3.org/2000/svg">
  <mask id="mask0_68_31" style="mask-type:luminance" maskUnits="userSpaceOnUse" x="0" y="0" width="320" height="86">
    <path d="M320 9.53674e-07H0V86H320V9.53674e-07Z" fill="white"/>
  </mask>
  <g mask="url(#mask0_68_31)">
    <path d="M121.545 0H-0.938324V68.5884C11.815 78.229 27.5467 83.9222 44.5683 83.9222C87.145 83.9222 121.662 48.3028 121.662 4.36192C121.662 2.8982 121.622 1.4448 121.547 0L121.545 0Z" fill="url(#paint0_radial_68_31)"/>
    <path d="M38.4017 -22.7281C43.565 21.9025 80.3683 56.5037 125.005 56.5037C169.642 56.5037 206.445 21.9025 211.608 -22.7281H38.4017Z" fill="url(#paint1_radial_68_31)"/>
  </g>
  <path d="M268.405 46.342C255.422 59.6616 237.488 67.9176 217.692 67.9176C179.99 67.9176 149.088 37.9914 146.222 9.53674e-07H0V49.9574C17.445 58.4576 33.8683 53.0826 52.6 33.8324C65.5833 20.5127 83.5167 12.2567 103.313 12.2567C142.898 12.2567 174.987 45.248 175 85.926H0V86.0017H320V29.7422C302.928 21.9283 286.777 27.4615 268.405 46.342Z" fill="url(#paint2_linear_68_31)"/>
  <path d="M255.707 10.8962C245.458 4.3946 232.492 4.38772 222.235 10.8738L206.21 21.0081C208.735 57.3362 238.093 86 273.938 86C291.715 86 307.897 78.9497 320 67.412V51.6808L255.707 10.8962Z" fill="url(#paint3_radial_68_31)"/>
  <path d="M191.72 9.53674e-07C195.775 47.1504 237.208 84.2129 287.727 84.2129C299.047 84.2129 309.912 82.3502 320.002 78.9325V9.53674e-07H191.722H191.72Z" fill="url(#paint4_radial_68_31)"/>
  <path d="M67.1567 9.53674e-07H0V85.9243H87.675C90.3717 77.6563 91.8333 68.8034 91.8333 59.598C91.8333 36.1647 82.3633 15.0139 67.1567 9.53674e-07Z" fill="url(#paint5_radial_68_31)"/>
  <path d="M187.828 -11.6547H47.88C47.5367 -8.74448 47.3583 -5.78264 47.3583 -2.7778C47.3583 37.4014 78.92 69.9731 117.853 69.9731C156.787 69.9731 188.348 37.4014 188.348 -2.7778C188.348 -5.78264 188.17 -8.7462 187.827 -11.6547H187.828Z" fill="url(#paint6_radial_68_31)"/>
  <path d="M186.242 9.53674e-07H0V61.6362C18.0333 66.5932 38.76 69.4158 60.81 69.4158C130.458 69.4158 186.92 41.2714 186.92 6.5532C186.92 4.34128 186.69 2.15516 186.242 0.00172095V9.53674e-07Z" fill="url(#paint7_radial_68_31)"/>
  <defs>
    <radialGradient id="paint0_radial_68_31" cx="0" cy="0" r="1" gradientUnits="userSpaceOnUse" gradientTransform="translate(44.5667 4.36192) scale(77.0933 79.5603)">
      <stop stop-color="#E23F8C"/>
      <stop offset="0.1" stop-color="#EC669F"/>
      <stop offset="0.23" stop-color="#DF1616" stop-opacity="0.8281"/>
      <stop offset="0.38" stop-color="#D21D32" stop-opacity="0.64"/>
      <stop offset="0.54" stop-color="#BF2859" stop-opacity="0.4096"/>
      <stop offset="0.7" stop-color="#A6368B" stop-opacity="0.1936"/>
      <stop offset="0.87" stop-color="#8E54C5" stop-opacity="0.04"/>
      <stop offset="1" stop-color="#8E54C5" stop-opacity="0"/>
    </radialGradient>
    <radialGradient id="paint1_radial_68_31" cx="0" cy="0" r="1" gradientUnits="userSpaceOnUse" gradientTransform="translate(125.005 -33.5125) scale(87.225 90.0162)">
      <stop stop-color="#7155FA"/>
      <stop offset="0.3" stop-color="#7155FA" stop-opacity="0.5184"/>
      <stop offset="0.98" stop-color="#7155FA" stop-opacity="0.01"/>
      <stop offset="1" stop-color="#7155FA" stop-opacity="0"/>
    </radialGradient>
    <linearGradient id="paint2_linear_68_31" x1="160" y1="-25.272" x2="160" y2="75.4306" gradientUnits="userSpaceOnUse">
      <stop stop-color="#004DA3"/>
      <stop offset="0.14" stop-color="#034DA5" stop-opacity="0.9409"/>
      <stop offset="0.29" stop-color="#0D4DAD" stop-opacity="0.7744"/>
      <stop offset="0.46" stop-color="#1D4FB9" stop-opacity="0.5476"/>
      <stop offset="0.64" stop-color="#3450CB" stop-opacity="0.2916"/>
      <stop offset="0.82" stop-color="#5052E1" stop-opacity="0.0784"/>
      <stop offset="0.99" stop-color="#7155FA" stop-opacity="0"/>
    </linearGradient>
    <radialGradient id="paint3_radial_68_31" cx="0" cy="0" r="1" gradientUnits="userSpaceOnUse" gradientTransform="translate(273.938 15.922) scale(67.905 70.078)">
      <stop stop-color="#F65843" stop-opacity="0.5"/>
      <stop offset="0.42" stop-color="#DB3024" stop-opacity="0.0676"/>
      <stop offset="0.81" stop-color="#C6100C" stop-opacity="0.01"/>
      <stop offset="1" stop-color="#BE0403" stop-opacity="0"/>
    </radialGradient>
    <radialGradient id="paint4_radial_68_31" cx="0" cy="0" r="1" gradientTransform="matrix(-83.6656 7.62996 8.00547 79.7412 296.956 -27.8018)" gradientUnits="userSpaceOnUse">
      <stop stop-color="#F65843"/>
      <stop offset="0.09" stop-color="#EC4937" stop-opacity="0.6724"/>
      <stop offset="0.23" stop-color="#E03729" stop-opacity="0.3721"/>
      <stop offset="0.36" stop-color="#D5271D" stop-opacity="0.1764"/>
      <stop offset="0.49" stop-color="#CD1A14" stop-opacity="0.0729"/>
      <stop offset="0.62" stop-color="#C6100C" stop-opacity="0.0225"/>
      <stop offset="0.75" stop-color="#C10907" stop-opacity="0.01"/>
      <stop offset="0.88" stop-color="#BE0504" stop-opacity="0.01"/>
      <stop offset="1" stop-color="#BE0403" stop-opacity="0"/>
    </radialGradient>
    <radialGradient id="paint5_radial_68_31" cx="0" cy="0" r="1" gradientUnits="userSpaceOnUse" gradientTransform="translate(-3.09166 12.4459) scale(71.42 73.7054)">
      <stop offset="0.23" stop-color="#EA3829" stop-opacity="0.8"/>
      <stop offset="0.48" stop-color="#D9241A" stop-opacity="0.25"/>
      <stop offset="0.8" stop-color="#C50D09" stop-opacity="0.0196"/>
      <stop offset="0.95" stop-color="#BE0403" stop-opacity="0"/>
    </radialGradient>
    <radialGradient id="paint6_radial_68_31" cx="0" cy="0" r="1" gradientTransform="matrix(-61.0796 6.02509 6.80063 73.4246 122.905 -8.94064)" gradientUnits="userSpaceOnUse">
      <stop stop-color="#004DA3" stop-opacity="0.9"/>
      <stop offset="0.06" stop-color="#004DA3" stop-opacity="0.5929"/>
      <stop offset="0.2" stop-color="#004DA3" stop-opacity="0.2916"/>
      <stop offset="0.34" stop-color="#004DA3" stop-opacity="0.1156"/>
      <stop offset="0.49" stop-color="#004DA3" stop-opacity="0.0361"/>
      <stop offset="0.64" stop-color="#004DA3" stop-opacity="0.01"/>
      <stop offset="0.81" stop-color="#004DA3" stop-opacity="0.01"/>
      <stop offset="1" stop-color="#004DA3" stop-opacity="0"/>
    </radialGradient>
    <radialGradient id="paint7_radial_68_31" cx="0" cy="0" r="1" gradientUnits="userSpaceOnUse" gradientTransform="translate(60.7768 5.92592) rotate(-90) scale(62.762 125.909)">
      <stop stop-color="#EA3829" stop-opacity="0.5"/>
      <stop offset="0.57" stop-color="#EA3829" stop-opacity="0.0441"/>
      <stop offset="1" stop-color="#EA3829" stop-opacity="0"/>
    </radialGradient>
  </defs>
</svg>
